<svg xmlns="http://www.w3.org/2000/svg" xmlns:v="https://svgstorm.com"
viewBox = "0 0 320 317"
width="320"
height="317">
<g fill="None" fill-opacity="0.0" stroke="#000000" stroke-opacity="0.01" stroke-width="0.3"><path d="
M 0.00 7.00 
C 16.69 22.52 32.43 39.26 48.75 55.25 C 64.17 74.20 93.79 87.36 86.00 116.00 C 86.00 148.67 86.00 181.33 86.00 214.00 C 90.59 240.85 69.46 295.06 115.00 282.00 C 147.67 282.00 180.33 282.00 213.00 282.00 C 242.25 273.45 258.21 298.98 276.00 317.00
L 320.00 317.00
L 320.00 276.00
C 308.12 260.87 283.97 250.10 283.00 230.00 C 283.00 202.00 283.00 174.00 283.00 146.00 C 278.03 123.75 298.32 75.05 260.00 85.00 C 204.34 84.48 148.05 86.04 92.78 84.22 C 64.90 56.14 36.32 28.44 9.00 0.00
L 0.00 0.00
L 0.00 7.00
M 223.00 144.00 
C 225.11 169.36 223.78 196.02 223.67 221.67 C 198.94 224.55 171.78 222.56 146.33 222.67 C 143.45 197.94 145.44 170.78 145.33 145.33 C 170.20 142.23 197.28 144.88 223.00 144.00 Z"/>
</g>
<g fill="None" fill-opacity="0.0" stroke="#FFFFFF" stroke-opacity="0.99" stroke-width="0.3"><path d="
M 320.00 276.00 
L 320.00 48.00
C 281.33 48.00 242.67 48.00 204.00 48.00 C 170.08 42.02 125.47 60.79 99.00 37.00
C 119.59 30.07 163.50 35.95 193.00 34.00 C 223.74 42.53 243.02 21.23 261.00 0.00
L 9.00 0.00
C 36.32 28.44 64.90 56.14 92.78 84.22 C 148.05 86.04 204.34 84.48 260.00 85.00 C 298.32 75.05 278.03 123.75 283.00 146.00 C 283.00 174.00 283.00 202.00 283.00 230.00 C 283.97 250.10 308.12 260.87 320.00 276.00 Z"/>
</g>
<g fill="None" fill-opacity="0.0" stroke="#FFFFFF" stroke-opacity="0.72" stroke-width="0.3"><path d="
M 99.00 37.00 
C 141.01 34.00 185.69 38.00 228.00 35.00
C 238.67 22.84 251.38 12.12 262.00 0.00
L 261.00 0.00
C 243.02 21.23 223.74 42.53 193.00 34.00 C 163.50 35.95 119.59 30.07 99.00 37.00 Z"/>
</g>
<g fill="None" fill-opacity="0.0" stroke="#FFFFFF" stroke-opacity="0.61" stroke-width="0.3"><path d="
M 228.00 35.00 
C 240.00 23.83 251.88 11.96 263.00 0.00
L 262.00 0.00
C 251.38 12.12 238.67 22.84 228.00 35.00 Z"/>
</g>
<g fill="None" fill-opacity="0.0" stroke="#000000" stroke-opacity="0.24" stroke-width="0.3"><path d="
M 228.00 35.00 
C 239.89 26.28 252.62 11.54 264.00 0.00
L 263.00 0.00
C 251.88 11.96 240.00 23.83 228.00 35.00 Z"/>
</g>
<g fill="None" fill-opacity="0.0" stroke="#000000" stroke-opacity="0.02" stroke-width="0.3"><path d="
M 228.00 35.00 
C 185.69 38.00 141.01 34.00 99.00 37.00
C 125.47 60.79 170.08 42.02 204.00 48.00 C 242.67 48.00 281.33 48.00 320.00 48.00
L 320.00 0.00
L 264.00 0.00
C 252.62 11.54 239.89 26.28 228.00 35.00 Z"/>
</g>
<g fill="None" fill-opacity="0.0" stroke="#FFFFFF" stroke-opacity="0.99" stroke-width="0.3"><path d="
M 0.00 262.00 
C 12.03 251.69 25.89 239.07 36.00 226.00
C 35.66 185.05 31.68 133.05 38.00 97.00
C 37.97 97.00 38.00 98.00 38.00 98.00
C 61.81 124.03 43.01 168.39 49.00 202.00 C 49.00 240.33 49.00 278.67 49.00 317.00
L 276.00 317.00
C 258.21 298.98 242.25 273.45 213.00 282.00 C 180.33 282.00 147.67 282.00 115.00 282.00 C 69.46 295.06 90.59 240.85 86.00 214.00 C 86.00 181.33 86.00 148.67 86.00 116.00 C 93.79 87.36 64.17 74.20 48.75 55.25 C 32.43 39.26 16.69 22.52 0.00 7.00
L 0.00 262.00 Z"/>
</g>
<g fill="None" fill-opacity="0.0" stroke="#FFFFFF" stroke-opacity="0.90" stroke-width="0.3"><path d="
M 36.00 226.00 
C 37.33 183.49 33.33 137.09 38.00 97.00
C 31.68 133.05 35.66 185.05 36.00 226.00 Z"/>
</g>
<g fill="None" fill-opacity="0.0" stroke="#FFFFFF" stroke-opacity="0.44" stroke-width="0.3"><path d="
M 36.00 226.00 
C 39.00 184.40 35.00 139.53 38.00 98.00
C 38.00 98.00 37.97 97.00 38.00 97.00
C 33.33 137.09 37.33 183.49 36.00 226.00 Z"/>
</g>
<g fill="None" fill-opacity="0.0" stroke="#000000" stroke-opacity="0.01" stroke-width="0.3"><path d="
M 36.00 226.00 
C 25.89 239.07 12.03 251.69 0.00 262.00
L 0.00 317.00
L 49.00 317.00
C 49.00 278.67 49.00 240.33 49.00 202.00 C 43.01 168.39 61.81 124.03 38.00 98.00
C 35.00 139.53 39.00 184.40 36.00 226.00 Z"/>
</g>
<g fill="None" fill-opacity="0.0" stroke="#FFFFFF" stroke-opacity="0.98" stroke-width="0.3"><path d="
M 223.00 144.00 
C 197.28 144.88 170.20 142.23 145.33 145.33 C 145.44 170.78 143.45 197.94 146.33 222.67 C 171.78 222.56 198.94 224.55 223.67 221.67 C 223.78 196.02 225.11 169.36 223.00 144.00 Z"/>
</g>
<g fill="#000000" fill-opacity="0.01" stroke="None">
<path d="
M 0.00 7.00 
C 16.69 22.52 32.43 39.26 48.75 55.25 C 64.17 74.20 93.79 87.36 86.00 116.00 C 86.00 148.67 86.00 181.33 86.00 214.00 C 90.59 240.85 69.46 295.06 115.00 282.00 C 147.67 282.00 180.33 282.00 213.00 282.00 C 242.25 273.45 258.21 298.98 276.00 317.00
L 320.00 317.00
L 320.00 276.00
C 308.12 260.87 283.97 250.10 283.00 230.00 C 283.00 202.00 283.00 174.00 283.00 146.00 C 278.03 123.75 298.32 75.05 260.00 85.00 C 204.34 84.48 148.05 86.04 92.78 84.22 C 64.90 56.14 36.32 28.44 9.00 0.00
L 0.00 0.00
L 0.00 7.00
M 223.00 144.00 
C 225.11 169.36 223.78 196.02 223.67 221.67 C 198.94 224.55 171.78 222.56 146.33 222.67 C 143.45 197.94 145.44 170.78 145.33 145.33 C 170.20 142.23 197.28 144.88 223.00 144.00 Z"/>
</g>
<g fill="#FFFFFF" fill-opacity="0.99" stroke="None">
<path d="
M 320.00 276.00 
L 320.00 48.00
C 281.33 48.00 242.67 48.00 204.00 48.00 C 170.08 42.02 125.47 60.79 99.00 37.00
C 119.59 30.07 163.50 35.95 193.00 34.00 C 223.74 42.53 243.02 21.23 261.00 0.00
L 9.00 0.00
C 36.32 28.44 64.90 56.14 92.78 84.22 C 148.05 86.04 204.34 84.48 260.00 85.00 C 298.32 75.05 278.03 123.75 283.00 146.00 C 283.00 174.00 283.00 202.00 283.00 230.00 C 283.97 250.10 308.12 260.87 320.00 276.00 Z"/>
</g>
<g fill="#FFFFFF" fill-opacity="0.72" stroke="None">
<path d="
M 99.00 37.00 
C 141.01 34.00 185.69 38.00 228.00 35.00
C 238.67 22.84 251.38 12.12 262.00 0.00
L 261.00 0.00
C 243.02 21.23 223.74 42.53 193.00 34.00 C 163.50 35.95 119.59 30.07 99.00 37.00 Z"/>
</g>
<g fill="#FFFFFF" fill-opacity="0.61" stroke="None">
<path d="
M 228.00 35.00 
C 240.00 23.83 251.88 11.96 263.00 0.00
L 262.00 0.00
C 251.38 12.12 238.67 22.84 228.00 35.00 Z"/>
</g>
<g fill="#000000" fill-opacity="0.24" stroke="None">
<path d="
M 228.00 35.00 
C 239.89 26.28 252.62 11.54 264.00 0.00
L 263.00 0.00
C 251.88 11.96 240.00 23.83 228.00 35.00 Z"/>
</g>
<g fill="#000000" fill-opacity="0.02" stroke="None">
<path d="
M 228.00 35.00 
C 185.69 38.00 141.01 34.00 99.00 37.00
C 125.47 60.79 170.08 42.02 204.00 48.00 C 242.67 48.00 281.33 48.00 320.00 48.00
L 320.00 0.00
L 264.00 0.00
C 252.62 11.54 239.89 26.28 228.00 35.00 Z"/>
</g>
<g fill="#FFFFFF" fill-opacity="0.99" stroke="None">
<path d="
M 0.00 262.00 
C 12.03 251.69 25.89 239.07 36.00 226.00
C 35.66 185.05 31.68 133.05 38.00 97.00
C 37.97 97.00 38.00 98.00 38.00 98.00
C 61.81 124.03 43.01 168.39 49.00 202.00 C 49.00 240.33 49.00 278.67 49.00 317.00
L 276.00 317.00
C 258.21 298.98 242.25 273.45 213.00 282.00 C 180.33 282.00 147.67 282.00 115.00 282.00 C 69.46 295.06 90.59 240.85 86.00 214.00 C 86.00 181.33 86.00 148.67 86.00 116.00 C 93.79 87.36 64.17 74.20 48.75 55.25 C 32.43 39.26 16.69 22.52 0.00 7.00
L 0.00 262.00 Z"/>
</g>
<g fill="#FFFFFF" fill-opacity="0.90" stroke="None">
<path d="
M 36.00 226.00 
C 37.33 183.49 33.33 137.09 38.00 97.00
C 31.68 133.05 35.66 185.05 36.00 226.00 Z"/>
</g>
<g fill="#FFFFFF" fill-opacity="0.44" stroke="None">
<path d="
M 36.00 226.00 
C 39.00 184.40 35.00 139.53 38.00 98.00
C 38.00 98.00 37.97 97.00 38.00 97.00
C 33.33 137.09 37.33 183.49 36.00 226.00 Z"/>
</g>
<g fill="#000000" fill-opacity="0.01" stroke="None">
<path d="
M 36.00 226.00 
C 25.89 239.07 12.03 251.69 0.00 262.00
L 0.00 317.00
L 49.00 317.00
C 49.00 278.67 49.00 240.33 49.00 202.00 C 43.01 168.39 61.81 124.03 38.00 98.00
C 35.00 139.53 39.00 184.40 36.00 226.00 Z"/>
</g>
<g fill="#FFFFFF" fill-opacity="0.98" stroke="None">
<path d="
M 223.00 144.00 
C 197.28 144.88 170.20 142.23 145.33 145.33 C 145.44 170.78 143.45 197.94 146.33 222.67 C 171.78 222.56 198.94 224.55 223.67 221.67 C 223.78 196.02 225.11 169.36 223.00 144.00 Z"/>
</g>
</svg>