<svg width="8" height="8" viewBox="0 0 8 8" fill="none" xmlns="http://www.w3.org/2000/svg">
<path d="M3.90508 5.23941L4.01893 5.91692C3.94673 5.9558 3.83011 5.99189 3.67462 6.02521C3.51634 6.06131 3.3303 6.08075 3.1165 6.08075C2.50285 6.06964 2.04191 5.88638 1.7337 5.53651C1.42271 5.18387 1.26721 4.73682 1.26721 4.19536C1.2811 3.55395 1.46713 3.06247 1.82255 2.71816C2.18908 2.37107 2.64446 2.19336 3.19425 2.19336C3.4025 2.19336 3.58299 2.2128 3.73293 2.24612C3.88287 2.27944 3.99394 2.31553 4.06613 2.35719L3.90508 3.04858L3.61075 2.95418C3.49968 2.92641 3.37196 2.91253 3.22479 2.91253C2.90269 2.90975 2.63613 3.01249 2.42788 3.21796C2.21685 3.42066 2.10855 3.73165 2.10022 4.14538C2.10022 4.52302 2.20296 4.81735 2.40011 5.03393C2.59725 5.24774 2.87492 5.3588 3.23034 5.36158L3.59965 5.32826C3.71904 5.30605 3.81901 5.2755 3.90508 5.23941ZM4.56872 6.08075L4.7381 4.97007H4.32159L4.416 4.41472H4.8325L4.92136 3.85938H4.50485L4.59926 3.30404H5.01577L5.18514 2.19336H5.74049L5.57111 3.30404H5.84878L6.01816 2.19336H6.5735L6.40412 3.30404H6.82062L6.72622 3.85938H6.30971L6.22086 4.41472H6.63736L6.54295 4.97007H6.12645L5.95707 6.08075H5.40173L5.57111 4.97007H5.29344L5.12406 6.08075H4.56872ZM5.38784 4.41472H5.66551L5.75437 3.85938H5.4767L5.38784 4.41472Z" fill="white"/>
</svg>
