<svg width="8" height="8" viewBox="0 0 8 8" fill="none" xmlns="http://www.w3.org/2000/svg">
<g clip-path="url(#clip0_201_22341)">
<path d="M4.18934 1.4541C4.11437 1.4541 4.03662 1.47354 3.97276 1.50964L1.90689 2.70362C1.77361 2.78137 1.69031 2.92576 1.69031 3.08125V5.46367C1.69031 5.61916 1.77361 5.76355 1.90689 5.8413L2.44835 6.15229C2.71214 6.28002 2.80099 6.28279 2.92317 6.28279C3.3119 6.28279 3.53682 6.04677 3.53682 5.63582V3.28395C3.53682 3.25063 3.50905 3.22286 3.47573 3.22286H3.2175C3.1814 3.22286 3.15363 3.25063 3.15363 3.28395V5.63582C3.15363 5.81908 2.96482 5.99957 2.66215 5.84685L2.09293 5.52198C2.07349 5.50809 2.06239 5.48588 2.06239 5.46367V3.08125C2.06239 3.05626 2.07349 3.03405 2.09293 3.02294L4.1588 1.83173C4.17546 1.82063 4.20323 1.82063 4.21989 1.83173L6.28576 3.02294C6.30519 3.03405 6.3163 3.05626 6.3163 3.08125V5.46367C6.3163 5.48588 6.30519 5.50809 6.28576 5.52198L4.21989 6.71318C4.20323 6.72429 4.17546 6.72429 4.15602 6.71318L3.634 6.39664C3.61179 6.38831 3.58957 6.38553 3.57569 6.39386C3.42853 6.47716 3.40076 6.49382 3.2647 6.53547C3.23138 6.54658 3.17862 6.56602 3.28414 6.62433L3.97276 7.03251C4.0394 7.07138 4.1116 7.09082 4.18934 7.09082C4.26709 7.09082 4.33929 7.07138 4.40593 7.03251L6.4718 5.8413C6.60508 5.76355 6.68838 5.61916 6.68838 5.46367V3.08125C6.68838 2.92576 6.60508 2.78137 6.4718 2.70362L4.40593 1.50964C4.34206 1.47354 4.26709 1.4541 4.18934 1.4541ZM4.74468 3.16178C4.15602 3.16178 3.80338 3.4089 3.80338 3.82541C3.80338 4.27246 4.15325 4.40296 4.71969 4.4585C5.39443 4.52514 5.44719 4.6251 5.44719 4.75838C5.44719 4.98885 5.26115 5.08603 4.82799 5.08603C4.2782 5.08603 4.16158 4.94998 4.11993 4.67786C4.11437 4.65009 4.08938 4.62788 4.05884 4.62788H3.79227C3.75895 4.62788 3.73396 4.65287 3.73396 4.68896C3.73396 5.03328 3.92278 5.44978 4.82799 5.44978C5.48051 5.44978 5.85537 5.19155 5.85537 4.74172C5.85537 4.29467 5.55548 4.17805 4.91962 4.09197C4.2782 4.00867 4.21433 3.96424 4.21433 3.8143C4.21433 3.68935 4.26987 3.52275 4.74468 3.52275C5.16119 3.52275 5.32502 3.61438 5.38888 3.90038C5.39443 3.92815 5.41942 3.94758 5.44719 3.94758H5.71653C5.73042 3.94758 5.74708 3.94203 5.75818 3.92815C5.76929 3.91704 5.77762 3.90038 5.77207 3.88372C5.73319 3.38947 5.40554 3.16178 4.74468 3.16178Z" fill="white"/>
</g>
<defs>
<clipPath id="clip0_201_22341">
<rect width="6.6641" height="6.6641" fill="white" transform="translate(0.8573 0.94043)"/>
</clipPath>
</defs>
</svg>
