<svg width="7" height="8" viewBox="0 0 7 8" fill="none" xmlns="http://www.w3.org/2000/svg">
<g clip-path="url(#clip0_201_21133)">
<path d="M3.60756 5.82472C1.7666 5.82472 0.275513 5.06945 0.275513 4.13648C0.275513 3.20351 1.7666 2.44824 3.60756 2.44824C5.44852 2.44824 6.93961 3.20351 6.93961 4.13648C6.93961 5.06945 5.44852 5.82472 3.60756 5.82472ZM2.16645 3.61724C2.31639 3.61724 2.41913 3.645 2.46911 3.70331C2.51909 3.75885 2.5302 3.85881 2.50521 3.98931C2.47744 4.13648 2.42468 4.23089 2.34416 4.29198C2.26641 4.35306 2.14701 4.38361 1.98596 4.38361H1.74439L1.89156 3.61724H2.16645ZM1.1946 5.15831H1.59445L1.68886 4.67238H2.03039C2.18033 4.67238 2.30251 4.65572 2.39969 4.62518C2.49688 4.59186 2.58573 4.5391 2.66626 4.46413C2.7329 4.40304 2.78566 4.3364 2.82731 4.26143C2.86896 4.18924 2.8995 4.10594 2.91338 4.01708C2.95781 3.8005 2.92727 3.63112 2.82175 3.51172C2.71346 3.38955 2.54686 3.33123 2.31639 3.33123H1.55002L1.1946 5.15831ZM3.20771 2.84531L2.8523 4.67238H3.24659L3.45206 3.62557H3.76861C3.86857 3.62557 3.93521 3.64223 3.96576 3.67555C3.9963 3.70887 4.00185 3.76995 3.98519 3.85881L3.82692 4.67238H4.22954L4.39337 3.81994C4.42947 3.64778 4.4017 3.52283 4.3184 3.4423C4.2351 3.36733 4.08238 3.33123 3.86024 3.33123H3.5076L3.60756 2.84531H3.20771ZM5.27358 3.61724C5.4263 3.61724 5.52626 3.645 5.57625 3.70331C5.62623 3.75885 5.63733 3.85881 5.61234 3.98931C5.58458 4.13648 5.53182 4.23089 5.45407 4.29198C5.37355 4.35306 5.25415 4.38361 5.0931 4.38361H4.85708L4.99591 3.61724H5.27358ZM4.30174 5.15831H4.70158L4.79599 4.67238H5.13475C5.28747 4.67238 5.41242 4.65572 5.5096 4.62518C5.60679 4.59186 5.69009 4.5391 5.77339 4.46413C5.84003 4.40304 5.89557 4.3364 5.93444 4.26143C5.97609 4.18924 6.00664 4.10594 6.0233 4.01708C6.06495 3.8005 6.0344 3.63112 5.92889 3.51172C5.82893 3.38955 5.65399 3.33123 5.42353 3.33123H4.65993L4.30174 5.15831Z" fill="white"/>
</g>
<defs>
<clipPath id="clip0_201_21133">
<rect width="6.6641" height="6.6641" fill="white" transform="translate(0.275513 0.804688)"/>
</clipPath>
</defs>
</svg>
