<svg width="8" height="7" viewBox="0 0 8 7" fill="none" xmlns="http://www.w3.org/2000/svg">
<g clip-path="url(#clip0_201_23563)">
<path d="M4.26645 2.88483C4.55245 2.88483 4.7857 3.11807 4.7857 3.40963C4.7857 3.6873 4.55245 3.92332 4.26645 3.92332C3.98045 3.92332 3.74721 3.6873 3.74721 3.40963C3.74721 3.11807 3.98045 2.88483 4.26645 2.88483ZM2.98084 5.63099C3.15577 5.73651 3.53896 5.57546 3.98045 5.15895C3.83606 4.99512 3.69445 4.81742 3.56117 4.63138C3.33348 4.60916 3.10857 4.57584 2.89476 4.53142C2.75315 5.12563 2.80591 5.53381 2.98084 5.63099ZM3.17798 4.03716L3.09746 3.89555C3.06692 3.97607 3.03637 4.0566 3.01694 4.13435C3.09191 4.15101 3.17521 4.16489 3.26129 4.17877C3.23352 4.13157 3.20575 4.08437 3.17798 4.03716ZM4.99395 3.82613L5.21886 3.40963L4.99395 2.99312C4.91065 2.84595 4.82179 2.71545 4.74127 2.58494C4.59133 2.57661 4.43306 2.57661 4.26645 2.57661C4.09985 2.57661 3.94158 2.57661 3.79164 2.58494C3.71111 2.71545 3.62226 2.84595 3.53896 2.99312L3.31404 3.40963L3.53896 3.82613C3.62226 3.9733 3.71111 4.1038 3.79164 4.23431C3.94158 4.24264 4.09985 4.24264 4.26645 4.24264C4.43306 4.24264 4.59133 4.24264 4.74127 4.23431C4.82179 4.1038 4.91065 3.9733 4.99395 3.82613ZM4.26645 1.96018C4.2137 2.02127 4.15816 2.08514 4.10263 2.16011C4.15816 2.16011 4.21092 2.16011 4.26645 2.16011C4.32199 2.16011 4.37475 2.16011 4.43028 2.16011C4.37475 2.08514 4.31921 2.02127 4.26645 1.96018ZM4.26645 4.85907C4.31921 4.79798 4.37475 4.73411 4.43028 4.65914C4.37475 4.65914 4.32199 4.65914 4.26645 4.65914C4.21092 4.65914 4.15816 4.65914 4.10263 4.65914C4.15816 4.73411 4.2137 4.79798 4.26645 4.85907ZM5.54929 1.18826C5.37714 1.08275 4.99395 1.24379 4.55245 1.6603C4.69684 1.82413 4.83846 2.00184 4.97174 2.18787C5.19943 2.21009 5.42434 2.24341 5.63815 2.28784C5.77976 1.69362 5.727 1.28545 5.54929 1.18826ZM5.35492 2.78209L5.43545 2.9237C5.46599 2.84318 5.49653 2.76265 5.51597 2.68491C5.441 2.66825 5.3577 2.65436 5.27162 2.64048C5.29939 2.68768 5.32716 2.73489 5.35492 2.78209ZM5.75755 0.824512C6.16572 1.05776 6.21015 1.67141 6.03799 2.3878C6.74328 2.59605 7.25141 2.94036 7.25141 3.40963C7.25141 3.87889 6.74328 4.2232 6.03799 4.43145C6.21015 5.14784 6.16572 5.7615 5.75755 5.99474C5.35215 6.22798 4.79958 5.96142 4.26645 5.45328C3.73333 5.96142 3.18076 6.22798 2.77259 5.99474C2.36719 5.7615 2.32276 5.14784 2.49491 4.43145C1.78963 4.2232 1.28149 3.87889 1.28149 3.40963C1.28149 2.94036 1.78963 2.59605 2.49491 2.3878C2.32276 1.67141 2.36719 1.05776 2.77259 0.824512C3.18076 0.591269 3.73333 0.857832 4.26645 1.36597C4.79958 0.857832 5.35215 0.591269 5.75755 0.824512ZM5.67702 3.40963C5.77143 3.61788 5.85473 3.82613 5.92415 4.03716C6.50726 3.86223 6.83491 3.61233 6.83491 3.40963C6.83491 3.20693 6.50726 2.95702 5.92415 2.78209C5.85473 2.99312 5.77143 3.20137 5.67702 3.40963ZM2.85589 3.40963C2.76148 3.20137 2.67818 2.99312 2.60876 2.78209C2.02565 2.95702 1.698 3.20693 1.698 3.40963C1.698 3.61233 2.02565 3.86223 2.60876 4.03716C2.67818 3.82613 2.76148 3.61788 2.85589 3.40963ZM5.35492 4.03716C5.32716 4.08437 5.29939 4.13157 5.27162 4.17877C5.3577 4.16489 5.441 4.15101 5.51597 4.13435C5.49653 4.0566 5.46599 3.97607 5.43545 3.89555L5.35492 4.03716ZM4.55245 5.15895C4.99395 5.57546 5.37714 5.73651 5.54929 5.63099C5.727 5.53381 5.77976 5.12563 5.63815 4.53142C5.42434 4.57584 5.19943 4.60916 4.97174 4.63138C4.83846 4.81742 4.69684 4.99512 4.55245 5.15895ZM3.17798 2.78209C3.20575 2.73489 3.23352 2.68768 3.26129 2.64048C3.17521 2.65436 3.09191 2.66825 3.01694 2.68491C3.03637 2.76265 3.06692 2.84318 3.09746 2.9237L3.17798 2.78209ZM3.98045 1.6603C3.53896 1.24379 3.15577 1.08275 2.98084 1.18826C2.80591 1.28545 2.75315 1.69362 2.89476 2.28784C3.10857 2.24341 3.33348 2.21009 3.56117 2.18787C3.69445 2.00184 3.83606 1.82413 3.98045 1.6603Z" fill="white"/>
</g>
<defs>
<clipPath id="clip0_201_23563">
<rect width="6.6641" height="6.6641" fill="white" transform="translate(0.934448 0.0771484)"/>
</clipPath>
</defs>
</svg>
