<svg width="7" height="7" viewBox="0 0 7 7" fill="none" xmlns="http://www.w3.org/2000/svg">
<g clip-path="url(#clip0_201_25387)">
<path d="M3.66635 1.7334C2.92497 1.7334 2.46404 2.1027 2.278 2.84408C2.55567 2.47478 2.88055 2.33594 3.24985 2.42758C3.46088 2.48033 3.6136 2.63305 3.7802 2.80243C4.05232 3.0801 4.36053 3.39942 5.05471 3.39942C5.79609 3.39942 6.25702 3.03012 6.44306 2.28874C6.16539 2.65804 5.84052 2.79688 5.47121 2.70525C5.26018 2.65249 5.11024 2.49977 4.94086 2.33039C4.66875 2.05272 4.36053 1.7334 3.66635 1.7334ZM2.278 3.39942C1.53662 3.39942 1.07569 3.76872 0.889648 4.5101C1.16732 4.1408 1.49219 4.00197 1.8615 4.0936C2.07253 4.14636 2.22247 4.29908 2.39185 4.46845C2.66396 4.74613 2.97218 5.06545 3.66635 5.06545C4.40774 5.06545 4.86867 4.69614 5.05471 3.95476C4.77704 4.32407 4.45216 4.4629 4.08286 4.37127C3.87183 4.31851 3.72189 4.16579 3.55251 3.99641C3.28039 3.71874 2.97218 3.39942 2.278 3.39942Z" fill="white"/>
</g>
<defs>
<clipPath id="clip0_201_25387">
<rect width="6.6641" height="6.6641" fill="white" transform="translate(0.334473 0.0683594)"/>
</clipPath>
</defs>
</svg>
