<svg width="7" height="8" viewBox="0 0 7 8" fill="none" xmlns="http://www.w3.org/2000/svg">
<g clip-path="url(#clip0_201_15687)">
<path d="M3.61732 3.59783H3.04254V2.67874H3.72839C4.07825 2.67874 4.27262 2.83424 4.27262 3.12024C4.27262 3.43123 4.04216 3.59783 3.61732 3.59783ZM3.72006 3.9116H3.04254V4.92232H3.75338C4.18655 4.92232 4.41424 4.74739 4.41424 4.41418C4.41424 4.08098 4.17822 3.9116 3.72006 3.9116ZM6.45234 1.87905V5.59428C6.45234 6.09687 6.03583 6.51337 5.53325 6.51337H1.81802C1.31543 6.51337 0.898926 6.09687 0.898926 5.59428V1.87905C0.898926 1.37647 1.31543 0.959961 1.81802 0.959961H5.53325C6.03583 0.959961 6.45234 1.37647 6.45234 1.87905ZM4.78631 4.43084C4.78631 4.04766 4.53086 3.77276 4.13934 3.72278V3.70612C4.41701 3.65614 4.63637 3.37847 4.63637 3.07859C4.63637 2.6482 4.30317 2.3622 3.81447 2.3622H2.68435V5.23887H3.80614C4.41979 5.23887 4.78631 4.9362 4.78631 4.43084Z" fill="white"/>
</g>
<defs>
<clipPath id="clip0_201_15687">
<rect width="6.6641" height="6.6641" fill="white" transform="translate(0.343628 0.405273)"/>
</clipPath>
</defs>
</svg>
