<svg width="7" height="8" viewBox="0 0 7 8" fill="none" xmlns="http://www.w3.org/2000/svg">
<path d="M4.5753 2.49325C4.5753 2.49325 2.67603 2.96806 3.58679 4.01488C3.85613 4.3231 3.51737 4.60077 3.51737 4.60077C3.51737 4.60077 4.19767 4.25368 3.88112 3.80941C3.58679 3.40123 3.36466 3.19853 4.5753 2.49325ZM3.33411 2.82645C4.45868 1.93791 3.88112 1.36035 3.88112 1.36035C4.11437 2.27666 3.05922 2.55434 2.67881 3.12634C2.4178 3.51508 2.80654 3.93436 3.32578 4.41473C3.12864 3.94269 2.43168 3.53729 3.33411 2.82645ZM2.59551 5.65592C1.74028 5.89471 3.11753 6.38619 4.20322 5.92248C4.09771 5.88083 3.99497 5.83085 3.89778 5.77254C3.52015 5.85862 3.13141 5.87528 2.74823 5.82252C2.38448 5.77809 2.59551 5.65592 2.59551 5.65592ZM4.07272 5.18943C3.58679 5.29494 3.08421 5.31993 2.58995 5.26162C2.22621 5.22553 2.465 5.04782 2.465 5.04782C1.52092 5.36159 2.98702 5.71423 4.29763 5.33104C4.2171 5.3005 4.13936 5.24774 4.07272 5.18943ZM5.02235 6.10574C5.02235 6.10574 5.18062 6.23625 4.85297 6.33621C4.21988 6.52503 2.23454 6.58334 1.68475 6.34454C1.4876 6.25846 1.85968 6.13906 1.9763 6.11407C2.04017 6.09741 2.10403 6.09186 2.16789 6.09186C1.94853 5.94192 0.743444 6.3973 1.5598 6.52503C3.77283 6.886 5.59713 6.35842 5.02235 6.10574ZM4.26153 4.75626C4.34206 4.70351 4.42813 4.65908 4.51699 4.6202C4.51699 4.6202 4.09771 4.6924 3.67842 4.73127C3.23415 4.7757 2.7871 4.78125 2.34283 4.74793C1.6903 4.66186 2.70102 4.41473 2.70102 4.41473C2.39558 4.41473 2.0957 4.48692 1.82358 4.62298C1.25436 4.90065 3.2397 5.0256 4.26153 4.75626ZM4.51144 5.42823C4.50588 5.43933 4.50033 5.44766 4.48922 5.45599C5.88035 5.09225 5.36944 4.1676 4.70303 4.39807C4.66693 4.41473 4.63639 4.43694 4.61695 4.46749C4.65582 4.4536 4.6947 4.4425 4.73635 4.43417C5.06955 4.36752 5.54715 4.88677 4.51144 5.42823ZM4.54753 6.70829C3.71174 6.85268 2.85652 6.86378 2.01518 6.74716C2.01518 6.74716 2.1429 6.85268 2.79543 6.89433C3.79504 6.95819 5.33056 6.85823 5.36666 6.38619C5.37499 6.38897 5.3028 6.56668 4.54753 6.70829Z" fill="white"/>
</svg>
