<svg width="7" height="8" viewBox="0 0 7 8" fill="none" xmlns="http://www.w3.org/2000/svg">
<g clip-path="url(#clip0_201_21123)">
<path d="M1.04041 1.6377H6.03848V6.63577H1.04041V1.6377ZM2.35379 5.81386C2.46486 6.04988 2.68422 6.24425 3.05907 6.24425C3.47558 6.24425 3.76158 6.02212 3.76158 5.53619V3.93125H3.28954V5.52508C3.28954 5.76388 3.19235 5.82497 3.03963 5.82497C2.87858 5.82497 2.81194 5.7139 2.73697 5.5834L2.35379 5.81386ZM4.01426 5.76388C4.15309 6.036 4.43354 6.24425 4.87226 6.24425C5.31653 6.24425 5.64974 6.01378 5.64974 5.58895C5.64974 5.19743 5.42483 5.0225 5.02498 4.85034L4.90836 4.80036C4.70566 4.71429 4.61958 4.65598 4.61958 4.51714C4.61958 4.4033 4.70566 4.31444 4.84449 4.31444C4.97778 4.31444 5.06663 4.37275 5.14715 4.51714L5.5109 4.27557C5.35818 4.009 5.1416 3.90626 4.84449 3.90626C4.42521 3.90626 4.15587 4.17283 4.15587 4.52547C4.15587 4.90866 4.38078 5.08914 4.71954 5.23353L4.83616 5.28351C5.05275 5.37792 5.18047 5.43623 5.18047 5.59728C5.18047 5.73056 5.05552 5.82775 4.86115 5.82775C4.63069 5.82775 4.49741 5.70835 4.39744 5.54174L4.01426 5.76388Z" fill="white"/>
</g>
<defs>
<clipPath id="clip0_201_21123">
<rect width="6.6641" height="6.6641" fill="white" transform="translate(0.207397 0.804688)"/>
</clipPath>
</defs>
</svg>
