<svg width="24" height="24" viewBox="0 0 24 24" fill="none" xmlns="http://www.w3.org/2000/svg">
<g clip-path="url(#clip0_211_96245)">
<path d="M13.0019 20.9996C11.5749 19.9736 9.41187 17.1456 9.00187 14.9996C8.51587 15.7696 7.50087 16.9996 7.00187 16.9996C5.50287 16.1116 6.42787 13.0266 7.00187 10.9996C5.40587 9.56658 4.53387 8.54158 4.50187 6.99958C1.15187 3.55958 4.05787 1.72958 7.00187 3.99958H8.00187C16.4839 4.49958 14.4229 12.0696 17.0019 15.4996C19.2969 16.0216 20.6669 17.7536 22.0019 18.9996C19.9159 18.7996 19.2179 18.6556 18.5019 18.9996C18.9799 20.6396 20.6249 21.1996 22.0019 21.9996" stroke="white" stroke-width="1.5" stroke-linecap="round" stroke-linejoin="round"/>
<path d="M9 7H9.01" stroke="white" stroke-width="1.5" stroke-linecap="round" stroke-linejoin="round"/>
</g>
<defs>
<clipPath id="clip0_211_96245">
<rect width="24" height="24" fill="white"/>
</clipPath>
</defs>
</svg>
