<svg width="24" height="24" viewBox="0 0 24 24" fill="none" xmlns="http://www.w3.org/2000/svg">
<path d="M10.74 12.89V12.78C10.8 12.63 10.86 12.49 10.93 12.35C11.4834 11.1803 11.5763 9.84508 11.19 8.61002C11.1698 8.43364 11.0955 8.26782 10.9774 8.13533C10.8592 8.00283 10.7029 7.91016 10.53 7.87002C9.78601 7.81824 9.04812 8.03464 8.44997 8.48002V8.66002C8.51566 9.46321 8.49554 10.2711 8.38997 11.07C8.33322 11.4286 8.35962 11.7954 8.46712 12.1422C8.57461 12.489 8.76034 12.8064 9.00997 13.07C9.19384 13.2656 9.41521 13.4222 9.66089 13.5305C9.90657 13.6387 10.1715 13.6964 10.44 13.7C10.5254 13.4248 10.6255 13.1545 10.74 12.89ZM9.99997 8.58002C9.94378 8.51637 9.91191 8.4349 9.90997 8.35002C9.91604 8.32496 9.92715 8.3014 9.94262 8.28077C9.9581 8.26014 9.97761 8.24287 9.99997 8.23002C10.1476 8.15342 10.3166 8.12876 10.48 8.16002C10.73 8.16002 10.98 8.32002 10.96 8.50002C10.9226 8.59908 10.8554 8.68407 10.7676 8.7432C10.6798 8.80233 10.5758 8.83267 10.47 8.83002H10.41C10.2457 8.80409 10.0983 8.71422 9.99997 8.58002Z" fill="white"/>
<path d="M7.8801 11C7.97031 10.2368 7.99039 9.46691 7.9401 8.70002V8.42002C7.90069 6.76919 8.44616 5.15757 9.4801 3.87002C8.4801 3.55002 6.0801 2.87002 4.6101 3.97002C3.7101 4.61002 3.2901 5.81002 3.3801 7.52002C3.57931 9.01398 3.91402 10.4867 4.3801 11.92C5.0601 14.14 5.8301 15.54 6.4901 15.77C6.5901 15.77 6.9001 15.9 7.3501 15.36C7.9901 14.6 8.5801 13.95 8.8501 13.66L8.6601 13.47C8.34689 13.1474 8.11329 12.7561 7.97788 12.3273C7.84247 11.8985 7.80899 11.444 7.8801 11ZM11.3801 14.4C11.2201 14.34 11.1401 14.3 10.9601 14.51C10.8531 14.6177 10.756 14.7349 10.6701 14.86C10.3201 15.29 10.1701 15.44 9.1601 15.65C9.02331 15.6727 8.88926 15.7096 8.7601 15.76C8.87129 15.8379 8.99718 15.8924 9.1301 15.92C9.57759 16.0714 10.0618 16.0754 10.5117 15.9314C10.9617 15.7874 11.3536 15.5031 11.6301 15.12C11.6559 15.0653 11.6693 15.0055 11.6693 14.945C11.6693 14.8845 11.6559 14.8247 11.6301 14.77C11.5985 14.6187 11.5087 14.4858 11.3801 14.4ZM17.6701 8.58002C17.7165 8.31907 17.7433 8.05499 17.7501 7.79002C17.0901 7.71002 16.3301 7.72002 16.0301 8.15002C15.4501 8.98002 16.5901 11.03 17.0301 11.9C17.1267 12.0544 17.2136 12.2147 17.2901 12.38C17.33 12.4879 17.3802 12.5918 17.4401 12.69C17.7005 12.0109 17.7561 11.2704 17.6001 10.56C17.5522 10.2121 17.5288 9.86123 17.5301 9.51002C17.5524 9.19684 17.5992 8.88588 17.6701 8.58002ZM17.1101 8.42002C17.0235 8.50832 16.9117 8.56769 16.7901 8.59002H16.7301C16.635 8.59039 16.5421 8.56192 16.4635 8.50835C16.385 8.45479 16.3245 8.37867 16.2901 8.29002C16.2901 8.15002 16.4901 8.05002 16.7301 8.01002C16.9701 7.97002 17.2101 8.01002 17.2301 8.16002C17.2255 8.25902 17.1825 8.35232 17.1101 8.42002Z" fill="white"/>
<path d="M17.0001 4.88C17.6589 5.61256 18.1291 6.4947 18.3701 7.45C18.3754 7.49986 18.3754 7.55014 18.3701 7.6C18.3734 7.95537 18.3432 8.31027 18.2801 8.66C18.2326 8.94457 18.2026 9.23177 18.1901 9.52C18.1881 9.85462 18.2115 10.1889 18.2601 10.52C18.4621 11.4376 18.3346 12.397 17.9001 13.23L17.9701 13.31C20.1901 9.82 20.9701 5.77 20.2601 4.88C19.8053 4.30823 19.2252 3.84857 18.5646 3.53648C17.904 3.22439 17.1806 3.06821 16.4501 3.08C15.9025 3.07236 15.3557 3.12602 14.8201 3.24C15.66 3.61716 16.4049 4.17752 17.0001 4.88Z" fill="white"/>
<path d="M21.65 14C21.58 13.8 21.28 13.15 20.18 13.38C19.8507 13.45 19.5163 13.4935 19.18 13.51C20.0828 11.9832 20.7757 10.3418 21.24 8.62997C21.61 7.17997 21.9 5.23997 21.13 4.24997C20.5645 3.53257 19.8403 2.95603 19.0144 2.56563C18.1885 2.17524 17.2833 1.98162 16.37 1.99997C15.5372 1.99463 14.7082 2.11258 13.91 2.34997C13.431 2.26579 12.9462 2.21898 12.46 2.20997C11.5992 2.19228 10.7496 2.40643 10 2.82997C9.42179 2.63942 8.83014 2.49234 8.23 2.38997C7.51695 2.20817 6.77442 2.17292 6.04735 2.28637C5.32028 2.39981 4.62378 2.65958 4 3.04997C2.76 3.91997 2.19 5.43997 2.29 7.56997C2.48091 9.15376 2.81562 10.7169 3.29 12.24C3.57215 13.1929 3.94381 14.117 4.4 15C4.72508 15.8131 5.3522 16.4689 6.15 16.83C6.43915 16.9241 6.74818 16.9395 7.04525 16.8745C7.34231 16.8094 7.61665 16.6663 7.84 16.46C8.10766 16.7512 8.45566 16.9565 8.84 17.05C9.6173 17.2641 10.4436 17.2149 11.19 16.91V17.72C11.1816 18.5173 11.286 19.3118 11.5 20.08C11.5028 20.1233 11.5028 20.1667 11.5 20.21C11.6333 20.6745 11.8769 21.0999 12.21 21.45C12.6128 21.8268 13.1487 22.0282 13.7 22.01C13.9357 22.0109 14.1706 21.984 14.4 21.93C14.8346 21.877 15.2542 21.7373 15.6338 21.5192C16.0135 21.301 16.3454 21.0088 16.61 20.66C17.2873 19.4402 17.603 18.0527 17.52 16.66V16.4H17.69C18.5103 16.4568 19.3325 16.3198 20.09 16C20.54 15.77 22 15 21.65 14ZM19.84 15.47C19.2681 15.7003 18.6565 15.8158 18.04 15.81C17.7731 15.8171 17.5067 15.7834 17.25 15.71C17.15 16.65 16.93 18.4 16.8 19.13C16.7616 19.7189 16.5136 20.2747 16.1009 20.6966C15.6881 21.1185 15.138 21.3787 14.55 21.43C14.333 21.4759 14.1118 21.4994 13.89 21.5C13.4546 21.4898 13.0344 21.3378 12.6933 21.0671C12.3522 20.7964 12.1088 20.4217 12 20C11.7422 18.663 11.6482 17.2997 11.72 15.94C11.2332 16.38 10.596 16.6162 9.94 16.6C9.62258 16.5947 9.30695 16.551 9 16.47C8.91 16.47 8.13 16.24 8.14 15.74C8.15 15.24 8.8 15.15 9.04 15.1C9.9 14.92 9.96 14.85 10.23 14.51C10.2889 14.4266 10.3523 14.3464 10.42 14.27C10.032 14.2554 9.65247 14.1528 9.31 13.97C9.08 14.22 8.45 14.9 7.77 15.71C7.64641 15.8938 7.48181 16.0464 7.28919 16.1557C7.09656 16.265 6.88117 16.3281 6.66 16.34C6.54393 16.3567 6.42607 16.3567 6.31 16.34C5.43 16 4.6 14.55 3.84 12C3.36815 10.5239 3.0334 9.0075 2.84 7.46997C2.74 5.54997 3.24 4.18997 4.31 3.46997C6.23 2.10997 9.31 3.15997 10.01 3.40997C10.7222 2.93826 11.5668 2.70698 12.42 2.74997C12.8924 2.75047 13.3628 2.81095 13.82 2.92997C14.6247 2.65612 15.47 2.52086 16.32 2.52997C17.1456 2.50727 17.9652 2.67602 18.7147 3.023C19.4642 3.36998 20.1232 3.88578 20.64 4.52997C21.33 5.40997 20.87 7.52997 20.64 8.41997C20.1269 10.3391 19.3135 12.165 18.23 13.83C18.39 13.94 18.88 14.14 20.23 13.83C20.69 13.73 20.96 13.83 21.05 14.08C21.27 14.63 20.35 15.21 19.84 15.45V15.47Z" fill="white"/>
<path d="M17.43 13.59C17.1752 13.289 16.9663 12.9521 16.81 12.59C16.81 12.52 16.69 12.35 16.58 12.16C16 11.16 14.79 8.93998 15.58 7.81998C15.846 7.53718 16.1832 7.33128 16.5563 7.22393C16.9293 7.11659 17.3244 7.11177 17.7 7.20998C17.4429 6.50069 17.0601 5.84352 16.57 5.26998C16.0703 4.65431 15.4413 4.15602 14.7276 3.81041C14.0139 3.46479 13.2329 3.2803 12.44 3.26998C11.9721 3.24049 11.5032 3.30984 11.0639 3.47351C10.6245 3.63719 10.2246 3.89153 9.89001 4.21998C9.03858 5.22303 8.55213 6.48497 8.51001 7.79998L8.66001 7.71998C9.07577 7.49573 9.53063 7.35316 10 7.29998C10.1943 7.25499 10.3957 7.25054 10.5917 7.28692C10.7878 7.32329 10.9742 7.39971 11.1394 7.51139C11.3045 7.62307 11.4449 7.76761 11.5517 7.93599C11.6585 8.10437 11.7294 8.29296 11.76 8.48998C12.1711 9.84242 12.0679 11.2991 11.47 12.58C11.405 12.7062 11.3482 12.8365 11.3 12.97V13.08C11.2 13.35 11.11 13.6 11.05 13.81C11.2427 13.7733 11.442 13.7978 11.62 13.88C11.7704 13.9516 11.9037 14.0547 12.0106 14.1824C12.1176 14.3101 12.1959 14.4594 12.24 14.62V14.78C12.2449 14.8098 12.2449 14.8402 12.24 14.87C12.1323 16.5064 12.2061 18.1498 12.46 19.77C12.505 19.9816 12.5953 20.181 12.7247 20.3545C12.854 20.5279 13.0194 20.6714 13.2093 20.7749C13.3993 20.8785 13.6095 20.9397 13.8254 20.9544C14.0412 20.969 14.2577 20.9368 14.46 20.86C14.9362 20.8279 15.3833 20.6196 15.7142 20.2757C16.0452 19.9318 16.2362 19.477 16.25 19C16.4 18.12 16.7 15.65 16.74 15.12C16.74 14.06 17.26 13.85 17.58 13.76L17.43 13.59Z" fill="white"/>
<path d="M17.9999 14.33L17.9199 14.27H17.7999C17.5399 14.34 17.2999 14.41 17.3299 15.07C17.625 15.1871 17.9448 15.2283 18.2599 15.19C18.7328 15.1701 19.1991 15.0721 19.6399 14.9C19.9291 14.7695 20.1958 14.594 20.4299 14.38C19.6404 14.6569 18.7774 14.6391 17.9999 14.33Z" fill="white"/>
</svg>
